<svg width="24" height="24" viewBox="0 0 24 24" fill="none" xmlns="http://www.w3.org/2000/svg">
<path d="M16.0009 18V16H17.0009C17.622 15.9997 18.2345 15.8547 18.7898 15.5766C19.3452 15.2984 19.8282 14.8948 20.2005 14.3976C20.5727 13.9005 20.8242 13.3234 20.9347 12.7123C21.0453 12.1011 21.0121 11.4725 20.8376 10.8764C20.6632 10.2803 20.3523 9.73306 19.9296 9.27795C19.5069 8.82284 18.9841 8.47242 18.4025 8.25444C17.8209 8.03645 17.1965 7.95691 16.5789 8.02209C15.9612 8.08728 15.3672 8.29541 14.8439 8.63C14.5959 7.57362 14.0661 6.60426 13.3108 5.82513C12.5556 5.046 11.6032 4.48627 10.555 4.20552C9.5069 3.92478 8.40223 3.93353 7.35866 4.23085C6.31509 4.52817 5.37169 5.10293 4.62888 5.89392C3.88608 6.68492 3.37169 7.66256 3.14047 8.72273C2.90926 9.78291 2.96988 10.8859 3.31587 11.9144C3.66187 12.9429 4.2803 13.8582 5.10531 14.5631C5.93032 15.2679 6.93102 15.7358 8.00089 15.917V17.939C5.982 17.6841 4.13607 16.6696 2.83876 15.1018C1.54145 13.5341 0.890247 11.5309 1.01767 9.50001C1.14508 7.46909 2.04155 5.56303 3.52464 4.16971C5.00772 2.7764 6.96598 2.00053 9.00089 2C10.4226 1.99939 11.8188 2.37774 13.0456 3.0961C14.2725 3.81447 15.2857 4.84687 15.9809 6.087C16.7998 5.94602 17.639 5.97665 18.4454 6.17696C19.2518 6.37727 20.0078 6.74289 20.6655 7.25065C21.3232 7.75842 21.8683 8.39726 22.2662 9.1267C22.6641 9.85613 22.9062 10.6603 22.9771 11.4881C23.048 12.316 22.9461 13.1496 22.678 13.9361C22.4099 14.7225 21.9813 15.4447 21.4195 16.0569C20.8577 16.6691 20.1748 17.1579 19.4142 17.4924C18.6536 17.8269 17.8318 17.9997 17.0009 18H16.0009ZM10.2329 18.732L12.0009 16.964L13.7689 18.732C14.1185 19.0817 14.3565 19.5271 14.4529 20.0121C14.5493 20.497 14.4998 20.9996 14.3105 21.4564C14.1213 21.9132 13.8009 22.3036 13.3897 22.5783C12.9786 22.8529 12.4953 22.9995 12.0009 22.9995C11.5065 22.9995 11.0231 22.8529 10.612 22.5783C10.2009 22.3036 9.88049 21.9132 9.69125 21.4564C9.50202 20.9996 9.45247 20.497 9.54888 20.0121C9.64529 19.5271 9.88333 19.0817 10.2329 18.732V18.732Z" fill="white"/>
</svg>
